<svg id="visual" viewBox="0 0 960 300" width="960" height="300" xmlns="http://www.w3.org/2000/svg" xmlns:xlink="http://www.w3.org/1999/xlink" version="1.1"><rect x="0" y="0" width="960" height="300" fill="#931C1C"></rect><path d="M0 215L137 210L274 191L411 185L549 195L686 183L823 224L960 190L960 301L823 301L686 301L549 301L411 301L274 301L137 301L0 301Z" fill="#f5730a"></path><path d="M0 217L137 231L274 204L411 237L549 229L686 196L823 231L960 227L960 301L823 301L686 301L549 301L411 301L274 301L137 301L0 301Z" fill="#da5b09"></path><path d="M0 225L137 243L274 248L411 224L549 233L686 231L823 218L960 253L960 301L823 301L686 301L549 301L411 301L274 301L137 301L0 301Z" fill="#be4407"></path><path d="M0 253L137 242L274 270L411 259L549 269L686 260L823 256L960 268L960 301L823 301L686 301L549 301L411 301L274 301L137 301L0 301Z" fill="#a32d04"></path><path d="M0 283L137 268L274 274L411 268L549 263L686 271L823 276L960 264L960 301L823 301L686 301L549 301L411 301L274 301L137 301L0 301Z" fill="#871400"></path></svg>